<?xml version="1.0" standalone="no"?>
<!DOCTYPE svg PUBLIC "-//W3C//DTD SVG 20010904//EN"
 "http://www.w3.org/TR/2001/REC-SVG-20010904/DTD/svg10.dtd">
<svg version="1.0" xmlns="http://www.w3.org/2000/svg"
 width="70.000000pt" height="69.000000pt" viewBox="0 0 70.000000 69.000000"
 preserveAspectRatio="xMidYMid meet">

<g transform="translate(0.000000,69.000000) scale(0.100000,-0.100000)"
fill="#000000" stroke="none">
<path d="M258 649 c-27 -15 -22 -41 19 -93 l36 -47 24 23 c13 12 34 38 45 56
l21 34 -21 20 c-19 20 -22 20 -45 5 -22 -14 -27 -14 -37 -2 -14 17 -19 18 -42
4z"/>
<path d="M103 550 c-32 -13 -48 -47 -34 -76 16 -35 55 -48 92 -29 24 13 29 22
29 50 0 28 -5 37 -30 50 -16 8 -30 15 -32 14 -2 0 -13 -4 -25 -9z"/>
<path d="M490 553 c-68 -25 -64 -96 6 -117 28 -9 74 28 74 59 0 14 -11 32 -26
44 -28 22 -30 23 -54 14z"/>
<path d="M81 383 c-15 -30 -61 -205 -55 -214 3 -5 16 -9 30 -9 18 0 28 -9 42
-38 22 -47 42 -47 65 0 13 29 23 38 42 38 31 0 32 14 4 117 -28 104 -41 123
-84 123 -22 0 -38 -6 -44 -17z"/>
<path d="M447 389 c-26 -15 -47 -70 -47 -124 0 -39 3 -47 25 -55 22 -8 25 -15
25 -58 0 -56 12 -72 55 -72 43 0 55 16 55 72 0 43 3 50 25 58 22 8 25 15 25
60 0 56 -20 104 -49 120 -25 13 -91 12 -114 -1z"/>
</g>
</svg>
